<svg width="189" height="49" viewBox="0 0 189 49" fill="none" xmlns="http://www.w3.org/2000/svg">
<path fill-rule="evenodd" clip-rule="evenodd" d="M151.521 32.3734C158.158 31.1262 178.164 27.3667 182.502 30.0783C183.32 30.7327 182.186 30.9687 181.952 30.7863C181.927 30.7415 181.915 30.705 181.916 30.68C181.919 30.6717 181.922 30.663 181.926 30.6541C181.92 30.6603 181.917 30.6691 181.916 30.68C181.903 30.7244 181.918 30.7597 181.952 30.7863C182.249 31.3204 184.291 33.0312 184.805 30.4621C184.997 29.3107 184.421 28.3512 183.462 27.7755C178.888 24.785 159.319 28.4056 151.949 29.769C151.279 29.893 150.71 29.9984 150.262 30.0783L149.303 30.2703C145.848 31.0379 143.929 30.4621 142.97 29.5026C142.394 28.9269 142.202 28.1593 142.394 27.1998V27.0078C145.273 26.8159 148.151 25.6645 148.535 23.7454C148.535 23.1697 148.343 22.7859 148.151 22.4021C147.767 22.0183 147.384 21.8265 147 21.6346L147 21.6345C145.272 21.0588 143.545 22.0183 142.202 23.7454C141.818 24.3212 141.434 24.8969 141.051 25.6645H141.05C140.283 25.6645 139.515 25.6645 138.94 25.4726C138.172 25.2807 137.404 25.0888 137.212 24.705C137.021 24.3212 137.021 23.9374 137.404 23.3616C137.404 23.2657 137.452 23.1697 137.5 23.0738C137.548 22.9778 137.596 22.8819 137.596 22.7859C137.788 21.4426 137.212 21.4426 136.061 22.2102C135.677 22.4021 135.293 22.7859 134.91 23.1697C133.374 24.705 130.88 27.3917 129.728 29.3107C129.728 28.5175 129.677 27.3656 129.627 26.2522C129.581 25.2107 129.536 24.2028 129.536 23.5536V22.7859C129.344 22.2102 129.152 22.0183 128.577 22.0183C128.001 22.2102 127.425 22.7859 126.466 23.9374C124.547 26.2402 120.9 30.2703 118.214 30.2703C117.254 30.2703 116.487 29.8864 116.103 29.3107C115.995 29.203 115.948 29.0347 115.893 28.8399C115.85 28.6878 115.803 28.5195 115.719 28.3512C116.103 28.1593 116.487 27.9674 116.679 27.7755C118.598 26.4321 119.749 25.0888 120.325 23.9374C120.517 23.3617 120.517 22.9779 120.517 22.5941V22.594C120.325 22.0183 120.133 21.6345 119.749 21.4426C119.365 21.2507 118.79 21.0588 118.214 21.2507H118.022C116.103 22.0183 114.76 23.5535 114.184 25.2807C113.8 25.8564 113.8 26.624 113.8 27.3917L111.497 28.5431C110.154 29.3107 108.81 29.6945 107.659 29.8864C106.508 30.0783 105.74 29.8864 105.356 29.3107C105.164 29.3107 105.164 29.1188 105.164 29.1188C104.972 28.735 104.972 28.3513 104.972 27.7756V27.7755C104.972 27.1891 105.196 26.6027 105.388 26.1018C105.447 25.947 105.503 25.8004 105.548 25.6645C105.632 25.4962 105.679 25.3279 105.722 25.1758C105.777 24.981 105.824 24.8127 105.932 24.705L105.975 24.6043C106.517 23.3422 106.675 22.9729 105.74 22.7859C105.356 22.7859 105.164 22.9778 104.78 23.3616C104.397 23.5535 104.013 23.9373 103.437 24.513L103.437 24.5131C100.75 26.816 98.6395 28.3512 97.1042 29.3107C95.7609 30.0783 94.6094 30.4621 93.8418 30.4621H93.458C93.0742 30.2702 92.8823 30.0783 92.6904 29.5026C92.4985 28.7351 92.4985 27.9675 92.4985 27.0081V27.0078V27.0077C92.4985 26.432 92.4985 25.6645 92.6904 24.8969C95.569 21.8264 98.4475 17.4126 100.559 11.6554C101.518 8.96871 101.902 6.47397 101.902 5.32253C101.902 4.74682 101.71 4.17108 101.326 3.97917C100.942 3.59536 100.367 3.59537 99.7909 4.17109C99.2152 4.7468 98.0637 6.47396 96.7204 9.54445C96.3475 10.5387 95.8942 11.533 95.4646 12.4752C95.2309 12.9878 95.0042 13.485 94.8013 13.9583C94.2896 14.9818 93.9484 15.8347 93.721 16.4033C93.6073 16.6876 93.522 16.9008 93.458 17.0288C92.4985 19.3316 91.7309 21.8264 91.347 23.9374L90.9632 24.3212C88.6604 26.624 86.1656 28.1593 84.2465 28.9269C82.3275 29.6945 80.9841 29.8864 80.2165 29.6945C79.4489 28.9269 79.257 27.5836 79.6408 26.2402V26.0483C82.3275 25.4726 83.8627 24.8969 84.8223 23.7454C85.398 23.1697 85.7818 22.0183 85.9737 21.0588C86.1656 20.2912 85.9737 19.3316 85.398 18.7559C84.8223 18.1802 84.0546 18.1802 83.287 18.564C83.1145 18.7365 82.8644 18.9478 82.5891 19.1804C82.2519 19.4654 81.8768 19.7823 81.5599 20.0993C80.4084 21.4426 79.257 23.1697 78.6813 24.8969C77.8851 25.1244 77.0215 25.2844 76.0906 25.457C75.4507 25.5756 74.7791 25.7001 74.0755 25.8564C73.8886 25.8876 73.6967 25.9187 73.4997 25.9507C72.483 26.1157 71.3316 26.3025 70.0455 26.624V26.0483C68.1265 15.8773 39.3406 18.7559 38.1892 18.9478H37.6135C37.8467 18.8701 38.08 18.7608 38.326 18.6456C38.6872 18.4764 39.0759 18.2944 39.5325 18.1802C43.5626 16.645 50.0874 14.1502 53.1578 10.3121C54.6931 8.393 55.2688 6.09014 55.0769 4.17109C54.885 3.21156 54.6931 2.25203 54.1174 1.67631C53.5417 0.908688 52.9659 0.332965 52.0064 0.14106C50.6631 -0.242752 48.9359 0.141083 46.6331 1.48442C45.6735 2.06014 44.714 2.63585 43.9464 3.40348C42.603 4.363 41.6435 5.32251 41.0678 5.89823C37.0378 9.92824 33.1997 15.4935 30.1292 20.8669C29.3617 22.4019 28.5941 23.7451 27.8266 25.0883L27.8263 25.0888C27.4425 22.9778 26.6749 20.4831 25.7153 17.9883C24.9477 16.0692 23.9882 14.534 22.6449 13.1906C20.9177 11.4635 18.6148 10.3121 15.7363 9.92825C13.0496 9.54444 10.5548 9.73635 8.25194 9.92825C5.94908 10.3121 3.83812 10.6959 2.49478 11.0797C2.26995 11.0797 2.11097 11.1455 1.97926 11.2001C1.88613 11.2387 1.80664 11.2716 1.72715 11.2716C0.57572 11.6554 0 11.8473 0 12.423C0 12.9987 0.383811 13.1907 0.959528 13.3826C1.34334 13.3826 1.72716 13.5745 2.30288 13.9583C4.41384 15.1097 6.71669 17.2207 8.82765 19.3316C13.0496 23.3616 17.0796 27.1998 20.342 24.8969C20.9177 24.5131 21.3015 24.1293 21.4934 23.5536C23.4125 19.1397 13.4334 13.3826 8.82765 14.3421C11.5143 14.534 23.2206 19.9073 19.3825 23.7454C17.0796 25.2807 13.4334 21.8264 9.7872 18.3721L9.78718 18.3721C9.42201 18.0373 9.06167 17.7026 8.70462 17.3709C6.81001 15.611 5.00818 13.9372 3.07049 12.8068H2.87858C4.22192 12.423 6.14098 12.0392 8.25194 11.8473C10.5548 11.4635 12.8577 11.4635 15.3524 11.8473C18.0391 12.2311 19.9582 13.1906 21.4934 14.7259C23.0287 16.0692 24.1801 18.1802 24.9477 20.4831C25.9072 23.1697 26.483 25.4726 26.8668 27.7755C24.5639 32.5731 22.8368 37.1788 21.8772 40.2493C21.3015 42.1684 21.3015 43.5117 21.4934 44.2793C21.6853 44.855 22.0691 45.047 22.453 45.2389C22.8368 45.4308 23.4125 45.2389 23.7963 45.047C24.5639 44.6632 25.7153 43.5117 26.483 41.9765C27.8263 39.4817 28.9777 35.8355 28.7858 31.0379V31.0378C28.7858 30.0783 28.7858 29.1188 28.5939 28.1593C29.5535 26.2402 30.7049 24.1293 31.8563 22.2102C34.9268 16.8368 38.573 11.6554 42.603 7.62539C43.1255 6.92871 43.9642 6.23203 44.9755 5.39188C45.0785 5.30633 45.1833 5.21929 45.2897 5.13062C46.0573 4.5549 46.825 3.97919 47.7845 3.40348C49.7035 2.25204 51.0469 2.06013 52.0064 2.25203C52.3902 2.25203 52.774 2.63583 53.1578 3.01964C53.5417 3.59536 53.7336 4.17109 53.7336 4.74681C53.9255 6.47396 53.3498 8.393 52.1983 9.73634C49.3197 13.1906 43.1787 15.6854 39.3406 17.2207L39.3406 17.2207C38.573 17.6045 37.8054 17.9883 37.2297 18.1802L36.0782 18.7559C35.5025 19.1397 35.3106 19.5235 35.3106 19.9073C35.5025 20.4831 35.8863 20.675 36.654 20.8669C37.2297 21.0588 37.8054 21.0588 38.7649 21.0588C38.7649 21.0588 67.3588 17.7964 68.8941 26.8159V27.3917C68.6676 27.437 68.4196 27.4823 68.1579 27.5301C67.311 27.6849 66.3194 27.8661 65.4398 28.1593C56.6121 30.2702 49.7035 32.765 44.5221 35.2598C36.2702 39.2898 32.0482 43.1279 30.3211 45.2389C29.5535 46.0065 29.1697 46.5822 29.1697 46.5822L28.9777 46.966C28.9777 47.5417 29.3615 48.1175 29.9373 48.3094C30.513 48.5013 31.0887 48.5013 31.6644 48.5013C34.9268 48.5013 41.2597 46.3903 41.6435 46.1984C41.6641 46.1778 41.9856 46.0665 42.5456 45.8726C47.2021 44.2603 68.3531 36.9369 70.2374 28.5431L70.2375 28.5431C71.7727 28.1593 73.3079 27.7755 74.6513 27.5836C75.5645 27.4694 76.342 27.2873 77.0644 27.1181C77.5564 27.0029 78.0229 26.8937 78.4894 26.8159C78.2975 28.5431 78.4894 30.0783 79.6408 31.2298C79.7368 31.3257 79.8807 31.3737 80.0246 31.4217C80.1685 31.4697 80.3125 31.5176 80.4084 31.6136C81.368 31.9974 83.0951 31.8055 85.398 30.8459C87.1251 30.0783 89.428 28.735 91.539 26.8159V27.1998C91.347 28.3512 91.5389 29.5026 91.7308 30.2703C92.1147 31.2298 92.4985 31.8055 93.458 32.1893C93.6499 32.3812 93.8418 32.3812 94.2255 32.3812H94.2256C95.3771 32.5731 96.7204 32.1893 98.4475 31.0379C99.8909 30.1358 101.504 28.8945 103.765 27.1545C103.909 27.0437 104.055 26.9308 104.205 26.8159C104.205 27.0079 104.157 27.1998 104.109 27.3917C104.061 27.5836 104.013 27.7755 104.013 27.9674C104.013 28.735 104.013 29.5026 104.397 30.2703C104.397 30.4621 104.397 30.4622 104.588 30.654L104.589 30.6541C105.356 31.8055 106.699 32.1893 108.235 31.9974C109.77 31.8055 111.305 31.2298 112.649 30.6541C113.224 30.4622 113.992 30.0783 114.568 29.6945L115.143 30.8459C115.719 31.8055 116.87 32.3812 118.406 32.3812C121.86 32.3812 125.698 27.9674 127.809 25.4726C127.882 25.3993 127.956 25.354 128.018 25.3153C128.12 25.2527 128.193 25.2074 128.193 25.0888C128.214 25.3797 128.234 25.6931 128.256 26.0212C128.435 28.7233 128.681 32.4227 129.536 32.765C130.112 32.9569 130.688 32.765 130.88 31.8055C131.263 30.2702 133.95 27.1998 135.869 25.4726C135.965 25.5686 136.013 25.7125 136.061 25.8564C136.109 26.0003 136.157 26.1443 136.253 26.2402C136.637 26.8159 137.596 27.3917 138.748 27.5836C139.323 27.7755 140.091 27.7755 140.859 27.7755C140.667 29.1188 140.859 30.4621 141.818 31.4217C142.97 32.765 145.464 33.5326 149.494 32.765C149.574 32.765 149.686 32.7321 149.818 32.6935C150.004 32.639 150.229 32.5731 150.454 32.5731C150.754 32.5175 151.112 32.4502 151.521 32.3734ZM186.148 32.3812C186.148 32.3812 186.148 28.735 188.259 29.8864C190.562 31.0378 186.148 32.3812 186.148 32.3812ZM110.538 16.453C110.538 17.4126 110.346 18.1802 109.962 18.3721C109.386 18.9478 108.235 18.9478 107.659 17.9883C106.699 16.6449 107.467 15.6854 108.81 15.3016C109.002 15.3016 109.194 15.1097 109.578 14.726L109.578 14.7259L109.578 14.7258C109.962 14.342 110.538 13.7663 111.305 12.8068L111.305 12.8068C112.073 12.0392 112.84 11.2716 113.608 10.8878C114.376 10.504 114.951 10.3121 115.719 10.1202C116.003 10.1202 116.147 10.1202 116.151 10.1432C116.155 10.1669 116.011 10.2148 115.719 10.3121C115.143 10.504 114.376 10.8878 113.608 11.4635C112.84 11.8473 112.073 12.6149 111.497 13.5744C110.921 14.534 110.538 15.4935 110.538 16.453ZM142.97 26.2402C143.162 25.8564 143.353 25.4726 143.545 25.2807C144.505 24.1293 145.656 23.3616 146.616 23.7454L147 24.1293V24.3212C146.808 25.2807 145.081 25.8564 142.97 26.2402ZM115.839 26.6842C115.878 26.5911 115.911 26.5116 115.911 26.4321C116.487 25.0888 117.446 23.9374 118.79 23.5536H119.173C119.173 23.5536 118.981 23.7455 118.981 23.9374C118.598 24.705 117.638 25.8564 115.911 27.0078L115.719 27.1998C115.719 26.9749 115.785 26.8159 115.839 26.6842ZM94.5407 20.4215C94.8326 19.6401 95.1411 18.8142 95.3771 17.9883C95.569 17.6045 95.9528 16.645 96.5285 14.9178C96.6963 14.5262 96.8641 14.1183 97.0367 13.6989C97.4561 12.6794 97.9037 11.5917 98.4475 10.504C99.599 8.20111 100.367 6.85777 100.942 6.09014C100.942 7.24158 100.367 9.16064 99.599 11.4635C98.0637 15.6854 96.1447 19.1397 94.0337 21.8264C94.1816 21.3829 94.3579 20.9109 94.5407 20.4215ZM80.7922 24.8969C81.368 23.7455 82.1356 22.4021 82.9032 21.6345C83.2682 21.2695 83.6332 20.9817 83.9004 20.7709C84.0546 20.6493 84.1763 20.5533 84.2465 20.4831C84.4384 20.2912 84.6303 20.2911 84.6303 20.2911C84.8223 20.2911 84.8223 20.8669 84.8223 21.2507C84.6304 22.0183 84.4384 22.7859 84.0546 23.1697C83.4789 23.9373 82.5194 24.5131 80.7922 24.8969ZM65.8236 29.6945L68.7022 29.1188C65.8236 37.1788 41.2597 44.8551 41.4516 44.6632C41.4516 44.6632 35.1187 46.966 31.8563 46.966H30.8968L31.6644 46.1984C33.1997 44.2793 37.4216 40.4412 45.2897 36.6031C50.4712 34.1083 57.1879 31.6136 65.8236 29.6945ZM23.6044 41.0169C24.372 38.5222 25.7153 34.876 27.4425 31.0379V31.4217C27.6344 35.8355 26.6749 39.2898 25.3315 41.5927C24.5639 42.7441 23.7963 43.7036 23.2206 44.0874C23.0287 43.5117 23.2206 42.5522 23.6044 41.0169ZM67.9343 44.4713L67.3586 44.2793H67.5505V39.2898C67.5505 39.0979 67.7424 39.0979 67.7424 39.0979H69.8533C70.621 39.0979 71.3886 39.6736 71.3886 40.6331C71.3886 41.4008 70.8129 41.9765 70.2371 42.1684L71.1967 44.0874C71.1967 44.0874 71.1967 44.2793 71.0048 44.2793H70.4291H70.2371L69.2776 42.3603H68.1262V44.2793C68.1262 44.4712 67.9343 44.4713 67.9343 44.4713ZM68.1262 39.8655V41.5927V41.7846H69.4695C70.0452 41.7846 70.4291 41.4008 70.4291 40.8251C70.4291 40.2493 69.8533 39.8655 69.4695 39.8655H68.1262ZM78.4891 44.4713L75.4186 44.2793V39.2898C75.4186 39.0979 75.6105 39.0979 75.6105 39.0979H78.4891C78.681 39.0979 78.681 39.2898 78.681 39.2898V39.6736C78.681 39.8655 78.4891 39.8655 78.4891 39.8655H76.1862V41.4008H78.1053C78.2972 41.4008 78.2972 41.5927 78.2972 41.5927V41.9765C78.2972 42.1684 78.1053 42.1684 78.1053 42.1684H76.1862V43.7036H78.4891C78.681 43.7036 78.681 43.8955 78.681 43.8955V44.2793C78.681 44.4712 78.4891 44.4713 78.4891 44.4713ZM84.4382 44.4713C83.6705 44.4713 83.0948 44.0874 82.9029 43.8955C82.818 43.8107 82.7707 43.7633 82.7775 43.7535C82.7861 43.7412 82.8808 43.7885 83.0948 43.8955C83.0948 43.7996 83.1428 43.7516 83.1908 43.7036C83.2387 43.6557 83.2867 43.6077 83.2867 43.5117H83.4786C83.4786 43.7036 84.0543 44.0874 84.6301 44.0874C85.0139 44.0874 85.3977 43.7036 85.3977 43.3198C85.3977 42.936 85.0139 42.7441 84.2463 42.3603L84.2463 42.3603C83.4786 42.1684 82.9029 41.5927 82.9029 40.8251C82.9029 40.2493 83.2867 39.4817 84.4382 39.4817C85.2058 39.4817 85.7815 39.8655 85.7815 39.8655V40.0574L85.5896 40.2493H85.3977C85.3977 40.2493 84.822 39.8655 84.4382 39.8655C83.8624 39.8655 83.6705 40.2493 83.6705 40.4412C83.6705 40.825 84.0543 41.2089 84.6301 41.4008C85.3977 41.7846 86.1653 42.1684 86.1653 43.1279C86.1653 43.8955 85.3977 44.4713 84.4382 44.4713ZM91.5387 44.4713L90.9629 44.2793H90.771V39.8655H89.6196C89.4277 39.8655 89.4277 39.6736 89.4277 39.6736V39.2898C89.4277 39.0979 89.6196 39.0979 89.6196 39.0979H92.882C93.0739 39.0979 93.0739 39.2898 93.0739 39.2898V39.6736C93.0739 39.8655 92.882 39.8655 92.882 39.8655H91.7306V44.2793C91.7306 44.4712 91.5387 44.4713 91.5387 44.4713ZM96.7201 44.2793H96.3363C96.1444 44.2793 96.1444 44.2794 95.9525 44.0874L98.2554 39.0979H98.4473H98.6392L100.942 44.0874C100.942 44.0874 100.942 44.2793 100.75 44.2793H100.366C100.174 44.2793 100.174 44.0874 100.174 44.0874L99.7906 43.1279H97.2958C97.2958 43.3198 97.1039 43.7036 96.912 44.0874C96.912 44.2794 96.7201 44.2793 96.7201 44.2793ZM98.6392 40.4412L97.6796 42.5522H99.5987L98.6392 40.4412ZM106.891 44.2793C105.74 44.2793 104.972 43.5117 104.972 42.3603H104.78V39.2898C104.78 39.0979 104.972 39.0979 104.972 39.0979H105.548C105.74 39.0979 105.74 39.2898 105.74 39.2898V42.3603C105.74 43.1279 106.123 43.7036 106.891 43.7036C107.659 43.7036 108.043 43.1279 108.043 42.3603V39.2898C108.043 39.0979 108.234 39.0979 108.234 39.0979H108.81C109.002 39.0979 109.002 39.2898 109.002 39.2898V42.3603C109.002 43.3198 108.043 44.2793 106.891 44.2793ZM114.184 44.4713L113.608 44.2793H113.992V39.2898C113.992 39.0979 114.184 39.0979 114.184 39.0979H116.103C116.87 39.0979 117.638 39.6736 117.638 40.6331C117.638 41.4008 117.062 41.9765 116.486 42.1684L117.446 44.0874C117.446 44.0874 117.446 44.2793 117.254 44.2793H116.678H116.486L115.527 42.3603H114.375V44.2793C114.375 44.4712 114.184 44.4713 114.184 44.4713ZM114.375 39.8655V41.5927V41.7846H115.719C116.294 41.7846 116.678 41.4008 116.678 40.8251C116.678 40.2493 116.294 39.8655 115.719 39.8655H114.375ZM121.476 44.2793H121.092C121.092 44.2793 120.9 44.2794 120.708 44.0874L123.011 39.0979H123.203H123.395L125.698 44.0874C125.698 44.0874 125.698 44.2793 125.506 44.2793H125.122C124.93 44.2793 124.93 44.0874 124.93 44.0874L124.546 43.1279H122.052C122.052 43.3198 121.86 43.7036 121.668 44.0874C121.668 44.2794 121.476 44.2793 121.476 44.2793ZM123.395 40.4412L122.435 42.5522H124.354L123.395 40.4412ZM130.495 44.4713L129.92 44.2793V39.2898C129.92 39.0979 130.112 39.0979 130.112 39.0979H130.304L133.566 42.7441V39.2898C133.566 39.0979 133.758 39.0979 133.758 39.0979H134.142C134.334 39.0979 134.334 39.2898 134.334 39.2898V44.2793C134.334 44.4712 134.142 44.4713 134.142 44.4713H133.95L130.687 40.6331V44.2793C130.687 44.4712 130.495 44.4713 130.495 44.4713ZM140.091 44.4713L139.515 44.2793H139.323V39.8655H138.172C137.98 39.8655 137.98 39.6736 137.98 39.6736V39.2898C137.98 39.0979 138.172 39.0979 138.172 39.0979H141.434C141.626 39.0979 141.626 39.2898 141.626 39.2898V39.6736C141.626 39.8655 141.434 39.8655 141.434 39.8655H140.283V44.2793C140.283 44.4712 140.091 44.4713 140.091 44.4713ZM149.11 44.2793H148.918L146.424 39.2898C146.424 39.2898 146.424 39.0979 146.616 39.0979H147.191H147.383L149.11 42.7441L150.646 39.0979H150.837H151.413C151.605 39.0979 151.605 39.2898 151.605 39.2898L149.302 44.2793H149.11ZM158.514 44.4713L155.443 44.2793V39.2898C155.443 39.0979 155.635 39.0979 155.635 39.0979H158.514C158.706 39.0979 158.706 39.2898 158.706 39.2898V39.6736C158.706 39.8655 158.514 39.8655 158.514 39.8655H156.211V41.4008H158.13C158.322 41.4008 158.322 41.5927 158.322 41.5927V41.9765C158.322 42.1684 158.13 42.1684 158.13 42.1684H156.211V43.7036H158.514C158.706 43.7036 158.706 43.8955 158.706 43.8955V44.2793C158.706 44.4712 158.514 44.4713 158.514 44.4713ZM165.23 44.4713C163.695 44.4713 162.544 43.3198 162.544 41.7846C162.544 40.2493 163.887 39.0979 165.422 38.906C165.998 38.906 166.574 39.2898 167.149 39.6736V39.8655L166.766 40.2493H166.574C166.19 39.8655 165.614 39.6736 165.23 39.6736C164.079 39.6736 163.311 40.6331 163.311 41.5927C163.311 42.5522 164.271 43.5117 165.23 43.5117C165.806 43.5117 166.382 43.3198 166.382 43.3198V42.5522H165.614C165.422 42.5522 165.422 42.3603 165.422 42.3603V41.9765C165.422 41.7846 165.614 41.7846 165.614 41.7846H166.958C167.149 41.7846 167.149 41.9765 167.149 41.9765V43.7036V43.8955C167.149 43.8955 166.382 44.4713 165.23 44.4713ZM173.866 44.4713C172.331 44.4713 171.179 43.3198 171.179 41.7846C171.179 40.2493 172.331 39.0979 174.058 38.906C174.634 38.906 175.209 39.2898 175.785 39.6736V39.8655L175.401 40.2493H175.209C174.826 39.8655 174.25 39.6736 173.866 39.6736C172.715 39.6736 171.947 40.6331 171.947 41.5927C171.947 42.5522 172.715 43.5117 173.866 43.5117C174.442 43.5117 175.018 43.3198 175.018 43.3198V42.5522H174.25C174.058 42.5522 174.058 42.3603 174.058 42.3603V41.9765C174.058 41.7846 174.25 41.7846 174.25 41.7846H175.593C175.785 41.7846 175.785 41.9765 175.785 41.9765V43.7036V43.8955C175.785 43.8955 175.018 44.4713 173.866 44.4713ZM180.775 44.4713L180.199 44.2793H180.007V39.2898C180.007 39.0979 180.199 39.0979 180.199 39.0979H180.775C180.967 39.0979 180.967 39.2898 180.967 39.2898V44.2793C180.967 44.4712 180.775 44.4713 180.775 44.4713ZM188.643 44.4713L185.572 44.2793V39.2898C185.572 39.0979 185.764 39.0979 185.764 39.0979H188.643C188.835 39.0979 188.835 39.2898 188.835 39.2898V39.6736C188.835 39.8655 188.643 39.8655 188.643 39.8655H186.34V41.4008H188.259C188.451 41.4008 188.451 41.5927 188.451 41.5927V41.9765C188.451 42.1684 188.259 42.1684 188.259 42.1684H186.34V43.7036H188.643C188.835 43.7036 188.835 43.8955 188.835 43.8955V44.2793C188.835 44.4712 188.643 44.4713 188.643 44.4713Z" fill="#313030"/>
</svg>
